HIERARCHY
ROOT Hips
{
	OFFSET 81.157204 -10.406315 94.323196
	CHANNELS 6 Xposition Yposition Zposition Xrotation Yrotation Zrotation
	JOINT spine
	{
		OFFSET 0.000000 -0.448574 7.800591
		CHANNELS 3 Xrotation Yrotation Zrotation
		JOINT spine1
		{
			OFFSET 0.000000 -0.000002 10.136398
			CHANNELS 3 Xrotation Yrotation Zrotation
			JOINT spine2
			{
				OFFSET 0.000000 -0.000002 9.712509
				CHANNELS 3 Xrotation Yrotation Zrotation
				JOINT Neck
				{
					OFFSET 0.000000 -1.188874 24.936104
					CHANNELS 3 Xrotation Yrotation Zrotation
					JOINT Head
					{
						OFFSET 0.000000 -0.000001 7.533844
						CHANNELS 3 Xrotation Yrotation Zrotation
						End Site
						{
							OFFSET 0.000000 6.014017 18.236099
						}
					}
				}
				JOINT RightShoulder
				{
					OFFSET -4.089653 0.569455 10.488792
					CHANNELS 3 Xrotation Yrotation Zrotation
					JOINT RightArm
					{
						OFFSET 0.000000 -0.000002 13.757004
						CHANNELS 3 Xrotation Yrotation Zrotation
						JOINT RightArmRoll
						{
							OFFSET 0.000000 -0.000001 6.944778
							CHANNELS 3 Xrotation Yrotation Zrotation
							JOINT RightForeArm
							{
								OFFSET 0.000000 -0.000004 20.227692
								CHANNELS 3 Xrotation Yrotation Zrotation
								JOINT RightForeArmRoll
								{
									OFFSET 0.000000 -0.000001 7.793121
									CHANNELS 3 Xrotation Yrotation Zrotation
									JOINT RightHand
									{
										OFFSET 0.000000 -0.000003 15.639099
										CHANNELS 3 Xrotation Yrotation Zrotation
										End Site
										{
											OFFSET 0.000000 0.000000 0.100006
										}
									}
								}
							}
						}
					}
				}
				JOINT LeftShoulder
				{
					OFFSET 4.089653 0.569455 10.488792
					CHANNELS 3 Xrotation Yrotation Zrotation
					JOINT LeftArm
					{
						OFFSET 0.000000 -0.000002 13.757004
						CHANNELS 3 Xrotation Yrotation Zrotation
						JOINT LeftArmRoll
						{
							OFFSET 0.000000 -0.000001 6.944778
							CHANNELS 3 Xrotation Yrotation Zrotation
							JOINT LeftForeArm
							{
								OFFSET 0.000000 -0.000004 20.227692
								CHANNELS 3 Xrotation Yrotation Zrotation
								JOINT LeftForeArmRoll
								{
									OFFSET 0.000000 -0.000001 7.793121
									CHANNELS 3 Xrotation Yrotation Zrotation
									JOINT LeftHand
									{
										OFFSET 0.000000 -0.000003 15.639099
										CHANNELS 3 Xrotation Yrotation Zrotation
										End Site
										{
											OFFSET 0.000000 0.000000 0.100006
										}
									}
								}
							}
						}
					}
				}
			}
		}
	}
	JOINT RightUpLeg
	{
		OFFSET -6.914162 1.063580 -1.267883
		CHANNELS 3 Xrotation Yrotation Zrotation
		JOINT RightUpLegRoll
		{
			OFFSET 0.000000 -0.000003 18.337799
			CHANNELS 3 Xrotation Yrotation Zrotation
			JOINT RightLeg
			{
				OFFSET 0.000000 0.000004 -22.708496
				CHANNELS 3 Xrotation Yrotation Zrotation
				JOINT RightLegRoll
				{
					OFFSET 0.000000 -0.000004 22.782799
					CHANNELS 3 Xrotation Yrotation Zrotation
					JOINT RightFoot
					{
						OFFSET 0.000000 -0.000003 18.962898
						CHANNELS 3 Xrotation Yrotation Zrotation
						JOINT RightToeBase
						{
							OFFSET 0.000000 -0.000003 15.852005
							CHANNELS 3 Xrotation Yrotation Zrotation
							End Site
							{
								OFFSET 0.006721 0.884892 7.677002
							}
						}
					}
				}
			}
		}
	}
	JOINT LeftUpLeg
	{
		OFFSET 6.914162 1.063580 -1.267883
		CHANNELS 3 Xrotation Yrotation Zrotation
		JOINT LeftUpLegRoll
		{
			OFFSET 0.000000 -0.000003 18.337898
			CHANNELS 3 Xrotation Yrotation Zrotation
			JOINT LeftLeg
			{
				OFFSET 0.000000 -0.000004 22.708397
				CHANNELS 3 Xrotation Yrotation Zrotation
				JOINT LeftLegRoll
				{
					OFFSET 0.000000 -0.000004 22.993393
					CHANNELS 3 Xrotation Yrotation Zrotation
					JOINT LeftFoot
					{
						OFFSET 0.000000 -0.000003 18.752197
						CHANNELS 3 Xrotation Yrotation Zrotation
						JOINT LeftToeBase
						{
							OFFSET 0.000000 -0.000003 15.852005
							CHANNELS 3 Xrotation Yrotation Zrotation
							End Site
							{
								OFFSET -0.030113 0.884892 7.677002
							}
						}
					}
				}
			}
		}
	}
}
MOTION
Frames: 8
Frame Time: 0.041667
64.188004 -14.949312 93.327690 -1.629222 -0.125539 52.869725 -2.981914 0.618032 0.820357 -1.969703 1.201070 1.666596 -0.324761 1.220950 1.652060 24.069443 0.435376 8.837968 -14.278709 0.638907 8.784448 -15.982941 -50.881221 -18.725377 429.675180 -24.627198 495.073531 0.000000 -0.000000 0.000000 135.973384 -9.022308 28.568772 -0.000583 0.000001 -3.005018 -5.000082 -8.000519 -0.000525 -10.730739 63.559452 12.918305 -95.629834 101.795302 83.894387 -0.000002 0.000020 -0.000003 31.175350 6.315534 -0.055638 0.000005 -0.000004 3.000000 -4.999890 7.999109 -0.000071 10.498170 -174.269886 4.805877 -179.999991 0.000005 -1.428993 161.343821 -0.658478 -0.662314 -0.000009 -0.000002 0.818873 73.270841 6.650676 2.506461 35.144814 -5.862872 9.357525 -18.302414 -184.938286 5.416930 -0.000001 -0.000005 -0.933746 -16.082030 5.140557 0.987363 -0.000004 0.000001 -0.235473 72.248245 -6.505654 -2.980118 25.456967 7.355620 -0.000002 
64.321411 -14.937715 93.339699 -1.580633 -0.095587 53.048461 -2.980375 0.620335 0.831441 -1.966766 1.205219 1.688840 -0.321829 1.225370 1.674249 23.750296 0.852561 8.644725 -14.210348 0.142447 8.608612 -15.767891 -50.596539 -18.451558 430.045376 -24.224000 495.352312 -0.000000 -0.000001 0.000002 135.925860 -9.048255 28.507400 -0.000581 -0.000002 -3.005021 -5.000081 -8.000516 -0.000523 -10.860556 63.942025 13.088600 -95.237412 101.570869 83.414348 -0.000001 0.000017 -0.000004 31.094624 6.310049 -0.049739 0.000000 -0.000003 2.999999 -4.999895 7.999106 -0.000072 10.477041 -174.233099 4.824125 -179.999991 0.000005 -1.430998 161.329874 -0.645174 -0.666997 -0.000010 -0.000001 0.808401 73.130310 6.655365 2.502303 35.310483 -5.827730 9.419541 -18.325244 -184.815097 5.470959 -0.000003 -0.000004 -0.939343 -16.081546 5.141244 0.984812 -0.000004 0.000001 -0.237858 72.323514 -6.532713 -2.900059 25.456964 7.355620 -0.000002 
64.445396 -14.902212 93.362389 -1.529821 -0.063634 53.226500 -2.978487 0.621804 0.842951 -1.963096 1.207701 1.711893 -0.318171 1.228111 1.697283 23.419390 1.299731 8.450043 -14.138907 -0.377074 8.429593 -15.554716 -50.285331 -18.179336 430.455897 -23.849272 495.549185 -0.000000 -0.000002 0.000001 135.862776 -9.060807 28.375862 -0.000582 0.000001 -3.005015 -5.000081 -8.000519 -0.000528 -10.989716 64.340266 13.257886 -94.904871 101.349509 82.989223 -0.000002 0.000019 -0.000003 31.010077 6.306339 -0.043946 -0.000001 -0.000005 3.000002 -4.999895 7.999106 -0.000072 10.448339 -174.198142 4.839587 -179.999991 0.000005 -1.432994 161.309616 -0.630889 -0.670423 -0.000009 -0.000002 0.798350 72.993808 6.659817 2.498581 35.476330 -5.792503 9.480133 -18.351709 -184.693738 5.523176 -0.000003 -0.000005 -0.944894 -16.080123 5.144589 0.982367 -0.000004 0.000001 -0.240045 72.400046 -6.559894 -2.819107 25.456967 7.355617 -0.000000 
64.594597 -14.866822 93.354492 -1.477160 -0.029813 53.404027 -2.976237 0.622539 0.854800 -1.958726 1.208693 1.735592 -0.313804 1.229401 1.720978 23.078598 1.773506 8.254925 -14.065339 -0.916957 8.247793 -15.343002 -49.951718 -17.907935 430.901827 -23.500150 495.673276 -0.000000 0.000000 -0.000001 135.785513 -9.061608 28.182981 -0.000579 0.000001 -3.005018 -5.000082 -8.000517 -0.000526 -11.118272 64.751512 13.426070 -94.625905 101.130916 82.613317 -0.000004 0.000020 -0.000004 30.920905 6.304096 -0.038209 0.000001 -0.000003 3.000000 -4.999896 7.999105 -0.000075 10.413107 -174.163048 4.852635 -179.999991 0.000005 -1.435005 161.284180 -0.614685 -0.675245 -0.000007 -0.000004 0.788656 72.861098 6.664052 2.495120 35.642471 -5.757205 9.538952 -18.381410 -184.574210 5.573731 -0.000002 -0.000004 -0.950374 -16.077760 5.150253 0.979999 -0.000004 0.000001 -0.242043 72.477405 -6.587129 -2.737679 25.456964 7.355613 -0.000000 
64.699203 -14.852722 93.370102 -1.423046 0.005726 53.581543 -2.973648 0.622644 0.866916 -1.953664 1.208437 1.759789 -0.308745 1.229421 1.745177 22.729847 2.270476 8.060264 -13.990229 -1.474505 8.063615 -15.132139 -49.599656 -17.636382 431.377481 -23.173896 495.733436 -0.000000 -0.000000 -0.000000 135.695669 -9.052401 27.938713 -0.000581 0.000002 -3.005018 -5.000081 -8.000516 -0.000525 -11.246188 65.173228 13.592999 -94.394109 100.915266 82.280454 -0.000002 0.000021 -0.000003 30.826659 6.302944 -0.032454 0.000003 -0.000004 2.999998 -4.999888 7.999106 -0.000069 10.372490 -174.130810 4.862747 -179.999991 0.000005 -1.436997 161.254633 -0.598486 -0.679100 -0.000009 -0.000004 0.779260 72.731891 6.668117 2.491834 35.809206 -5.721897 9.595680 -18.413920 -184.455624 5.622480 -0.000003 -0.000005 -0.955787 -16.074645 5.157904 0.977733 -0.000004 0.000001 -0.243884 72.555372 -6.614426 -2.655789 25.456967 7.355618 -0.000003 
64.840210 -14.822023 93.372101 -1.367863 0.042842 53.759524 -2.970726 0.622220 0.879190 -1.947923 1.207112 1.784305 -0.303016 1.228392 1.769698 22.375003 2.787197 7.866820 -13.914256 -2.046994 7.877411 -14.921463 -49.233062 -17.363659 431.876741 -22.867989 495.739447 -0.000000 -0.000002 0.000001 135.594705 -9.035616 27.653225 -0.000581 -0.000003 -3.005019 -5.000081 -8.000519 -0.000519 -11.373514 65.602936 13.758591 -94.201477 100.702294 81.983170 -0.000003 0.000017 -0.000003 30.726613 6.302549 -0.026603 0.000002 -0.000003 3.000001 -4.999892 7.999106 -0.000073 10.327597 -174.101426 4.869977 -179.999991 0.000004 -1.439004 161.222299 -0.580379 -0.683327 -0.000009 -0.000002 0.770085 72.605840 6.672044 2.488644 35.976925 -5.686584 9.650005 -18.448954 -184.338910 5.669893 -0.000003 -0.000004 -0.961123 -16.070969 5.167189 0.975561 -0.000004 0.000001 -0.245558 72.633796 -6.641652 -2.573524 25.456969 7.355614 0.000001 
64.973801 -14.787119 93.374100 -1.311952 0.081383 53.938366 -2.967477 0.621367 0.891563 -1.941530 1.204938 1.808963 -0.296634 1.226523 1.794380 22.015885 3.320193 7.675191 -13.837985 -2.631719 7.689484 -14.710230 -48.856077 -17.088715 432.392966 -22.579446 495.700651 0.000000 0.000001 -0.000001 135.484001 -9.013667 27.335703 -0.000582 0.000001 -3.005019 -5.000080 -8.000518 -0.000525 -11.500019 66.037903 13.922477 -94.040913 100.491972 81.714901 -0.000002 0.000020 -0.000004 30.620247 6.302558 -0.020601 0.000002 -0.000002 3.000002 -4.999895 7.999105 -0.000074 10.279545 -174.073969 4.874507 -179.999991 0.000004 -1.441996 161.188353 -0.562275 -0.686542 -0.000009 -0.000003 0.761080 72.482746 6.675871 2.485585 36.145856 -5.651320 9.701605 -18.486211 -184.224108 5.716148 -0.000002 -0.000005 -0.966378 -16.066724 5.177790 0.973460 -0.000004 0.000000 -0.247093 72.712350 -6.668755 -2.491293 25.456964 7.355620 -0.000001 
65.124298 -14.757315 93.408890 -1.255700 0.121199 54.118553 -2.963906 0.620189 0.903940 -1.934497 1.202124 1.833609 -0.289614 1.224004 1.819067 21.654152 3.865959 7.485862 -13.762034 -3.225954 7.500114 -14.497637 -48.472514 -16.810409 432.919383 -22.304995 495.627486 -0.000000 -0.000001 -0.000000 135.365252 -8.986841 26.995440 -0.000583 0.000001 -3.005018 -5.000086 -8.000516 -0.000525 -11.625487 66.475643 14.084350 -93.903421 100.284505 81.466972 0.000001 0.000018 -0.000005 30.506934 6.302632 -0.014377 -0.000001 -0.000003 3.000000 -4.999888 7.999105 -0.000069 10.229429 -174.049421 4.876228 -179.999991 0.000005 -1.444003 161.153819 -0.542276 -0.690094 -0.000009 0.000000 0.752180 72.362378 6.679561 2.482647 36.316392 -5.616128 9.750149 -18.525155 -184.110235 5.761072 -0.000004 -0.000004 -0.971540 -16.062105 5.189372 0.971442 -0.000004 0.000000 -0.248501 72.790897 -6.695690 -2.409001 25.456967 7.355613 -0.000001 
